# xmcd
#
# Track frame offsets:
#	150
#	19339
#	33109
#	45819
#	59150
#	76362
#	91637
#	107894
#	123686
#	138695
#	154384
#	169306
#
# Disc length: 2482 seconds
#
# Revision: 0
# Processed by: cddbd v1.5.2PL0 Copyright (c) Steve Scherf et al.
# Submitted via: audiograbber 1.83.01
#
DISCID=a009b00c
DTITLE=Various Artist - Die aktuelle Schlagertruhe [CD 4 )
DYEAR=2010
DGENRE=Schlager
TTITLE0=Peter Cornelius ( LC 18344) - Der Kaffee ist Fertig
TTITLE1=Lena Valaitis ( LC 18344) - Cio Casanova
TTITLE2=Olaf Berger ( LC 18344 ) - Fuer immer und ewig ( 2009)
TTITLE3=Ireen Sheer ( LC 18344) - Maenner wollen alle das eine
TTITLE4=Truck Stop ( LC 18344 ) - Damenwahl ,jetzt gehts los ( Western Dance Ve
TTITLE4=rsion)
TTITLE5=Andrea Juergens ( LC 18344 ) - Zurueck aus meinen Traum
TTITLE6=Roland Kaiser ( LC 18344 ) - Manchmal moechte ich schon mit Dir
TTITLE7=Joerg Bausch ( LC 18344 ) - Dieser Flug 2009
TTITLE8=Antonia ( LC 18344 ) - Eine neue Liebe ( 2009)
TTITLE9=Oliver Thomas ( LC 18344 ) - Du wirst lachen - Ich Wein um Dich
TTITLE10=Rosi and Leo ( LC 18344 ) - Dann nimm mich einfach in Deinen Arm
TTITLE11=Juergen Marcus ( LC 18344 ) - Schmetterlinge können nicht Weinen ( Neu
TTITLE11=aufnahme 2009)
EXTD=
EXTT0=
EXTT1=
EXTT2=
EXTT3=
EXTT4=
EXTT5=
EXTT6=
EXTT7=
EXTT8=
EXTT9=
EXTT10=
EXTT11=
PLAYORDER=
